<svg xmlns="http://www.w3.org/2000/svg" height="100%" viewBox="0 0 31 30" fill="none" class="icon-24px" style="transition: none !important; animation-duration: 0s !important; animation-delay: -0.0001s; animation-play-state: paused; animation-trigger: none; display: flex; fill: none; height: 16px; transition-property: none; visibility: visible"><path d="M28.5953 8.42627C28.4431 7.88117 28.1529 7.38456 27.7526 6.98448C27.3523 6.58441 26.8555 6.2944 26.3103 6.14252C24.2641 5.59377 16.0303 5.59377 16.0303 5.59377C16.0303 5.59377 7.81658 5.58252 5.74908 6.14252C5.20389 6.2944 4.70713 6.58441 4.30683 6.98448C3.90654 7.38456 3.61626 7.88117 3.46408 8.42627C3.07592 10.5213 2.88467 12.6481 2.89283 14.7788C2.88556 16.9011 3.07639 19.0194 3.46283 21.1063C3.61475 21.652 3.90505 22.1492 4.3056 22.5497C4.70615 22.9503 5.20337 23.2406 5.74908 23.3925C7.79283 23.9425 16.0303 23.9425 16.0303 23.9425C16.0303 23.9425 24.2428 23.9425 26.3103 23.3925C26.8555 23.2406 27.3523 22.9506 27.7526 22.5506C28.1529 22.1505 28.4431 21.6539 28.5953 21.1088C28.9737 19.0211 29.157 16.9028 29.1428 14.7813C29.1584 12.6505 28.9751 10.523 28.5953 8.42627ZM13.4016 18.7075V10.8325L20.2553 14.7738L13.4016 18.7075Z" fill="currentColor" style="transition: none !important; animation-duration: 0s !important; animation-delay: -0.0001s; animation-play-state: paused; animation-trigger: none; fill: rgb(22, 22, 22); transform-origin: 0px 0px; transition-property: none; visibility: visible"></path></svg>