<svg xmlns="http://www.w3.org/2000/svg" height="100%" viewBox="0 0 31 30" fill="none" class="icon-24px" style="transition: none !important; animation-duration: 0s !important; animation-delay: -0.0001s; animation-play-state: paused; animation-trigger: none; display: flex; fill: none; height: 16px; transition-property: none; visibility: visible"><path d="M28.4426 9.61758C28.4183 8.58045 28.224 7.55433 27.8676 6.58008C27.553 5.74483 27.0579 4.98935 26.4176 4.36758C25.7958 3.72728 25.0403 3.23216 24.2051 2.91758C23.2308 2.56113 22.2047 2.36689 21.1676 2.34258C19.8426 2.26758 19.4176 2.26758 16.0176 2.26758C12.6176 2.26758 12.1926 2.26758 10.8676 2.34258C9.83045 2.36689 8.80433 2.56113 7.83008 2.91758C6.99483 3.23216 6.23935 3.72728 5.61758 4.36758C4.97686 4.98655 4.4853 5.74313 4.18008 6.58008C3.81278 7.55176 3.61409 8.57902 3.59258 9.61758C3.51758 10.9426 3.51758 11.3676 3.51758 14.7676C3.51758 18.1676 3.51758 18.5926 3.59258 19.9176C3.61409 20.9561 3.81278 21.9834 4.18008 22.9551C4.4853 23.792 4.97686 24.5486 5.61758 25.1676C6.23935 25.8079 6.99483 26.303 7.83008 26.6176C8.80433 26.974 9.83045 27.1683 10.8676 27.1926C12.1926 27.2676 12.6176 27.2676 16.0176 27.2676C19.4176 27.2676 19.8426 27.2676 21.1676 27.1926C22.2047 27.1683 23.2308 26.974 24.2051 26.6176C25.0344 26.2914 25.7876 25.7978 26.4177 25.1677C27.0478 24.5376 27.5414 23.7844 27.8676 22.9551C28.224 21.9808 28.4183 20.9547 28.4426 19.9176C28.4426 18.5926 28.5176 18.1676 28.5176 14.7676C28.5176 11.3676 28.5176 10.9426 28.4426 9.61758ZM26.1926 19.7676C26.1835 20.561 26.0398 21.3472 25.7676 22.0926C25.5584 22.6317 25.2392 23.1213 24.8303 23.5303C24.4213 23.9392 23.9317 24.2584 23.3926 24.4676C22.6472 24.7398 21.861 24.8835 21.0676 24.8926C19.8176 24.9551 19.3551 24.9676 16.0676 24.9676C12.7801 24.9676 12.3176 24.9676 11.0676 24.8926C10.2435 24.9111 9.42259 24.7841 8.64258 24.5176C8.10344 24.3084 7.61381 23.9892 7.20489 23.5803C6.79598 23.1713 6.47676 22.6817 6.26758 22.1426C5.98976 21.3814 5.84597 20.5779 5.84258 19.7676C5.84258 18.5176 5.76758 18.0551 5.76758 14.7676C5.76758 11.4801 5.76758 11.0176 5.84258 9.76758C5.84597 8.9573 5.98976 8.15375 6.26758 7.39258C6.47676 6.85344 6.79598 6.36381 7.20489 5.95489C7.61381 5.54598 8.10344 5.22676 8.64258 5.01758C9.40375 4.73976 10.2073 4.59597 11.0176 4.59258C12.2676 4.59258 12.7301 4.51758 16.0176 4.51758C19.3051 4.51758 19.7676 4.51758 21.0176 4.59258C21.811 4.60168 22.5972 4.74539 23.3426 5.01758C23.8817 5.22676 24.3713 5.54598 24.7803 5.95489C25.1892 6.36381 25.5084 6.85344 25.7176 7.39258C26.0125 8.1507 26.1732 8.95435 26.1926 9.76758C26.2551 11.0176 26.2676 11.4801 26.2676 14.7676C26.2676 18.0551 26.2551 18.5176 26.1926 19.7676Z" fill="currentColor" style="transition: none !important; animation-duration: 0s !important; animation-delay: -0.0001s; animation-play-state: paused; animation-trigger: none; fill: rgb(22, 22, 22); transform-origin: 0px 0px; transition-property: none; visibility: visible"></path><path d="M16.0178 8.34229C14.747 8.34229 13.5048 8.7191 12.4482 9.42509C11.3917 10.1311 10.5681 11.1345 10.0819 12.3085C9.59556 13.4826 9.46832 14.7744 9.71623 16.0207C9.96414 17.2671 10.5761 18.4119 11.4746 19.3104C12.3732 20.209 13.518 20.8209 14.7643 21.0688C16.0106 21.3167 17.3025 21.1895 18.4765 20.7032C19.6505 20.2169 20.654 19.3934 21.36 18.3368C22.066 17.2802 22.4428 16.038 22.4428 14.7673C22.4428 13.0633 21.7659 11.429 20.5609 10.2241C19.356 9.0192 17.7218 8.34229 16.0178 8.34229ZM16.0178 18.9298C15.1945 18.9298 14.3897 18.6857 13.7052 18.2283C13.0207 17.7709 12.4872 17.1208 12.1721 16.3602C11.8571 15.5996 11.7746 14.7627 11.9353 13.9552C12.0959 13.1478 12.4923 12.4061 13.0744 11.824C13.6566 11.2418 14.3983 10.8454 15.2057 10.6848C16.0132 10.5242 16.8501 10.6066 17.6107 10.9216C18.3713 11.2367 19.0214 11.7702 19.4788 12.4547C19.9362 13.1392 20.1803 13.944 20.1803 14.7673C20.1803 15.3139 20.0726 15.8552 19.8634 16.3602C19.6542 16.8652 19.3476 17.3241 18.9611 17.7106C18.5746 18.0971 18.1157 18.4037 17.6107 18.6129C17.1057 18.8221 16.5644 18.9298 16.0178 18.9298Z" fill="currentColor" style="transition: none !important; animation-duration: 0s !important; animation-delay: -0.0001s; animation-play-state: paused; animation-trigger: none; fill: rgb(22, 22, 22); transform-origin: 0px 0px; transition-property: none; visibility: visible"></path><path d="M22.6914 6.59253C22.3947 6.59253 22.1047 6.6805 21.8581 6.84533C21.6114 7.01015 21.4191 7.24441 21.3056 7.5185C21.1921 7.79259 21.1624 8.09419 21.2202 8.38516C21.2781 8.67614 21.421 8.94341 21.6307 9.15319C21.8405 9.36297 22.1078 9.50583 22.3988 9.56371C22.6897 9.62158 22.9913 9.59188 23.2654 9.47835C23.5395 9.36482 23.7738 9.17256 23.9386 8.92588C24.1034 8.67921 24.1914 8.3892 24.1914 8.09253C24.1914 7.6947 24.0334 7.31317 23.7521 7.03187C23.4708 6.75056 23.0892 6.59253 22.6914 6.59253Z" fill="currentColor" style="transition: none !important; animation-duration: 0s !important; animation-delay: -0.0001s; animation-play-state: paused; animation-trigger: none; fill: rgb(22, 22, 22); transform-origin: 0px 0px; transition-property: none; visibility: visible"></path></svg>