<svg xmlns="http://www.w3.org/2000/svg" height="100%" viewBox="0 0 31 30" fill="none" class="icon-24px" style="transition: none !important; animation-duration: 0s !important; animation-delay: -0.0001s; animation-play-state: paused; animation-trigger: none; display: flex; fill: none; height: 16px; transition-property: none; visibility: visible"><path d="M16.5688 2.28883C17.9338 2.26758 19.2876 2.27758 20.6413 2.26758C20.683 3.89272 21.3335 5.44296 22.4638 6.61133C23.686 7.70925 25.2409 8.36588 26.8801 8.47633V12.6738C25.3684 12.6367 23.88 12.2931 22.5051 11.6638C21.9192 11.3835 21.3551 11.0596 20.8176 10.6951C20.8076 13.7363 20.8288 16.7776 20.7976 19.8088C20.7178 21.2809 20.231 22.702 19.3913 23.9138C18.699 24.9146 17.7811 25.7386 16.7117 26.3194C15.6424 26.9003 14.4515 27.2216 13.2351 27.2576C11.7437 27.3249 10.2655 26.9514 8.98508 26.1838C7.93117 25.5579 7.03836 24.694 6.37809 23.6613C5.71781 22.6286 5.30839 21.4556 5.18258 20.2363C5.16258 19.7151 5.15133 19.1951 5.17258 18.6838C5.27891 17.6157 5.60341 16.5808 6.12599 15.6432C6.64857 14.7055 7.35809 13.8852 8.21061 13.2329C9.06312 12.5807 10.0405 12.1104 11.0821 11.8513C12.1238 11.5921 13.2076 11.5496 14.2663 11.7263C14.2863 13.2676 14.2238 14.8088 14.2238 16.3513C13.7794 16.1955 13.3085 16.129 12.8383 16.1557C12.3681 16.1823 11.9077 16.3017 11.4838 16.5068C11.0598 16.7119 10.6805 16.9988 10.3678 17.351C10.055 17.7031 9.81496 18.1136 9.66133 18.5588C9.49818 19.1021 9.44882 19.6731 9.51633 20.2363C9.65144 21.095 10.0974 21.8741 10.7695 22.4254C11.4416 22.9767 12.2928 23.2617 13.1613 23.2263C13.7441 23.2092 14.3133 23.0468 14.8173 22.7539C15.3214 22.4609 15.7443 22.0467 16.0476 21.5488C16.2796 21.2222 16.4261 20.8428 16.4738 20.4451C16.5788 18.5801 16.5363 16.7263 16.5476 14.8613C16.5588 10.6638 16.5376 6.47633 16.5688 2.28883Z" fill="currentColor" style="transition: none !important; animation-duration: 0s !important; animation-delay: -0.0001s; animation-play-state: paused; animation-trigger: none; fill: rgb(22, 22, 22); transform-origin: 0px 0px; transition-property: none; visibility: visible"></path></svg>