<svg xmlns="http://www.w3.org/2000/svg" height="100%" viewBox="0 0 31 30" fill="none" class="icon-24px" style="transition: none !important; animation-duration: 0s !important; animation-delay: -0.0001s; animation-play-state: paused; animation-trigger: none; display: flex; fill: none; height: 16px; transition-property: none; visibility: visible"><path d="M27.1421 25.8926H22.4746V18.5839C22.4746 16.8414 22.4396 14.5989 20.0446 14.5989C17.6134 14.5989 17.2421 16.4951 17.2421 18.4551V25.8926H12.5784V10.8639H17.0584V12.9126H17.1184C17.5673 12.1461 18.2157 11.5156 18.9944 11.0882C19.7731 10.6607 20.6531 10.4523 21.5409 10.4851C26.2659 10.4851 27.1396 13.5951 27.1396 17.6426V25.8926H27.1421ZM7.31211 8.80764C6.77626 8.80838 6.25224 8.65017 5.80632 8.35304C5.3604 8.0559 5.01263 7.63319 4.807 7.13837C4.60137 6.64355 4.54712 6.09885 4.65111 5.5732C4.7551 5.04754 5.01267 4.56453 5.39122 4.18528C5.76977 3.80603 6.2523 3.54758 6.77776 3.44261C7.30323 3.33765 7.84802 3.3909 8.34322 3.59561C8.83842 3.80033 9.26178 4.14732 9.55973 4.59269C9.85769 5.03805 10.0169 5.56179 10.0171 6.09764C10.0176 6.45324 9.94801 6.80545 9.81231 7.13414C9.6766 7.46282 9.47745 7.76155 9.22624 8.01323C8.97502 8.26491 8.67667 8.46461 8.34823 8.60092C8.01979 8.73723 7.66771 8.80747 7.31211 8.80764ZM9.64961 25.8926H4.97336V10.8639H9.64961V25.8926Z" fill="currentColor" style="transition: none !important; animation-duration: 0s !important; animation-delay: -0.0001s; animation-play-state: paused; animation-trigger: none; fill: rgb(22, 22, 22); transform-origin: 0px 0px; transition-property: none; visibility: visible"></path></svg>